<svg width="23" height="23" viewBox="0 0 23 23" fill="none" xmlns="http://www.w3.org/2000/svg">
<g clip-path="url(#clip0_29_1541)">
<path d="M10.5 1C4.704 1 0 5.704 0 11.5C0 17.296 4.704 22 10.5 22C16.296 22 21 17.296 21 11.5C21 5.704 16.296 1 10.5 1ZM5.3235 18.094C5.775 17.149 8.526 16.225 10.5 16.225C12.474 16.225 15.2355 17.149 15.6765 18.094C14.2485 19.228 12.453 19.9 10.5 19.9C8.547 19.9 6.7515 19.228 5.3235 18.094ZM17.178 16.5715C15.6765 14.7445 12.033 14.125 10.5 14.125C8.967 14.125 5.3235 14.7445 3.822 16.5715C2.751 15.1645 2.1 13.411 2.1 11.5C2.1 6.8695 5.8695 3.1 10.5 3.1C15.1305 3.1 18.9 6.8695 18.9 11.5C18.9 13.411 18.249 15.1645 17.178 16.5715ZM10.5 5.2C8.463 5.2 6.825 6.838 6.825 8.875C6.825 10.912 8.463 12.55 10.5 12.55C12.537 12.55 14.175 10.912 14.175 8.875C14.175 6.838 12.537 5.2 10.5 5.2ZM10.5 10.45C9.6285 10.45 8.925 9.7465 8.925 8.875C8.925 8.0035 9.6285 7.3 10.5 7.3C11.3715 7.3 12.075 8.0035 12.075 8.875C12.075 9.7465 11.3715 10.45 10.5 10.45Z" fill="#2132CD"/>
</g>
<defs>
<clipPath id="clip0_29_1541">
<rect width="23" height="23" fill="white"/>
</clipPath>
</defs>
</svg>
