<svg width="21" height="19" viewBox="0 0 21 19" fill="none" xmlns="http://www.w3.org/2000/svg">
<path d="M18.168 0.875H2.83464C1.78047 0.875 0.917969 1.7375 0.917969 2.79167V16.2083C0.917969 17.2625 1.78047 18.125 2.83464 18.125H18.168C19.2221 18.125 20.0846 17.2625 20.0846 16.2083V2.79167C20.0846 1.7375 19.2221 0.875 18.168 0.875ZM18.168 16.2083H2.83464V2.79167H18.168V16.2083Z" fill="#2132CD"/>
<path d="M17.6012 7.98583L16.2404 6.625L13.2025 9.66292L11.8512 8.30208L10.5 9.65333L13.2025 12.375L17.6012 7.98583Z" fill="#2132CD"/>
<path d="M8.58464 4.70801H3.79297V6.62467H8.58464V4.70801Z" fill="#2132CD"/>
<path d="M8.58464 8.54199H3.79297V10.4587H8.58464V8.54199Z" fill="#2132CD"/>
<path d="M8.58464 12.375H3.79297V14.2917H8.58464V12.375Z" fill="#2132CD"/>
</svg>
