<svg width="14" height="15" viewBox="0 0 14 15" fill="none" xmlns="http://www.w3.org/2000/svg">
<path d="M1.75 15C1.3375 15 0.98425 14.8533 0.69025 14.5597C0.39675 14.2657 0.25 13.9125 0.25 13.5V3C0.25 2.5875 0.39675 2.2345 0.69025 1.941C0.98425 1.647 1.3375 1.5 1.75 1.5H2.5V0H4V1.5H10V0H11.5V1.5H12.25C12.6625 1.5 13.0157 1.647 13.3097 1.941C13.6033 2.2345 13.75 2.5875 13.75 3V13.5C13.75 13.9125 13.6033 14.2657 13.3097 14.5597C13.0157 14.8533 12.6625 15 12.25 15H1.75ZM1.75 13.5H12.25V6H1.75V13.5Z" fill="#3B414B"/>
</svg>
