<svg width="23" height="17" viewBox="0 0 23 17" fill="none" xmlns="http://www.w3.org/2000/svg">
<path d="M20.1256 0.791667C19.0619 0.45625 17.8927 0.3125 16.7715 0.3125C14.9027 0.3125 12.8902 0.695833 11.5007 1.75C10.1111 0.695833 8.09857 0.3125 6.22982 0.3125C4.36107 0.3125 2.34857 0.695833 0.958984 1.75V15.7896C0.958984 16.0292 1.19857 16.2687 1.43815 16.2687C1.53398 16.2687 1.5819 16.2208 1.67773 16.2208C2.97148 15.5979 4.84023 15.1667 6.22982 15.1667C8.09857 15.1667 10.1111 15.55 11.5007 16.6042C12.7944 15.7896 15.1423 15.1667 16.7715 15.1667C18.3527 15.1667 19.9819 15.4542 21.3236 16.1729C21.4194 16.2208 21.4673 16.2208 21.5631 16.2208C21.8027 16.2208 22.0423 15.9812 22.0423 15.7417V1.75C21.4673 1.31875 20.8444 1.03125 20.1256 0.791667ZM2.87565 13.7292V2.70833C3.92982 2.37292 5.07982 2.22917 6.22982 2.22917C7.51398 2.22917 9.2294 2.62208 10.5423 3.17792V14.1987C9.2294 13.6429 7.51398 13.25 6.22982 13.25C5.07982 13.25 3.92982 13.3938 2.87565 13.7292ZM20.1256 13.7292C19.0715 13.3938 17.9215 13.25 16.7715 13.25C15.4873 13.25 13.7719 13.6429 12.459 14.1987V3.17792C13.7719 2.6125 15.4873 2.22917 16.7715 2.22917C17.9215 2.22917 19.0715 2.37292 20.1256 2.70833V13.7292Z" fill="#2132CD"/>
</svg>
