<svg width="21" height="21" viewBox="0 0 21 21" fill="none" xmlns="http://www.w3.org/2000/svg">
<path d="M19.1243 4.74935H17.2077V13.3743H4.74935V15.291C4.74935 15.8181 5.1806 16.2493 5.70768 16.2493H16.2493L20.0827 20.0827V5.70768C20.0827 5.1806 19.6514 4.74935 19.1243 4.74935ZM14.3327 11.4577C14.8598 11.4577 15.291 11.0264 15.291 10.4993V1.87435C15.291 1.34727 14.8598 0.916016 14.3327 0.916016H1.87435C1.34727 0.916016 0.916016 1.34727 0.916016 1.87435V15.291L4.74935 11.4577H14.3327ZM3.3981 10.1064L2.83268 10.6623V2.83268H13.3743V9.54102H3.95393L3.3981 10.1064Z" fill="#2132CD"/>
</svg>
