<svg width="22" height="22" viewBox="0 0 22 22" fill="none" xmlns="http://www.w3.org/2000/svg">
<path d="M11 22C12.2136 22 13.2066 20.9846 13.2066 19.7436H8.79338C8.79338 20.9846 9.78636 22 11 22ZM17.6199 9.58974C17.6199 6.12615 15.8215 3.22667 12.655 2.45949V1.69231C12.655 0.755897 11.9157 0 11 0C10.0843 0 9.34504 0.755897 9.34504 1.69231V2.45949C6.18957 3.22667 4.38014 6.11487 4.38014 9.58974V15.2308L2.17352 17.4872V18.6154H19.8265V17.4872L17.6199 15.2308V9.58974ZM15.4132 16.359H6.58676V9.58974C6.58676 6.7918 8.25276 4.51282 11 4.51282C13.7472 4.51282 15.4132 6.7918 15.4132 9.58974V16.359ZM6.12337 1.78256L4.54564 0.169231C1.89769 2.23385 0.154463 5.41538 0 9.02564H2.20662C2.37212 6.0359 3.87262 3.41846 6.12337 1.78256ZM19.7934 9.02564H22C21.8345 5.41538 20.0913 2.23385 17.4544 0.169231L15.8877 1.78256C18.1164 3.41846 19.6279 6.0359 19.7934 9.02564Z" fill="#2132CD"/>
</svg>
