<svg width="20" height="23" viewBox="0 0 20 23" fill="none" xmlns="http://www.w3.org/2000/svg">
<path d="M10.0221 0.960938C5.00047 0.960938 0.917969 5.04344 0.917969 10.0651C0.917969 14.9239 4.74172 18.9105 9.54297 19.1597V22.6097L10.9134 21.9484C15.8296 19.5814 19.1263 14.8089 19.1263 10.0651C19.1263 5.04344 15.0438 0.960938 10.0221 0.960938ZM11.4596 19.4568V17.2526H10.0221C6.05464 17.2526 2.83464 14.0326 2.83464 10.0651C2.83464 6.0976 6.05464 2.8776 10.0221 2.8776C13.9896 2.8776 17.2096 6.0976 17.2096 10.0651C17.2096 13.6397 14.948 17.2622 11.4596 19.4568ZM9.0638 13.8984H10.9805V15.8151H9.0638V13.8984ZM10.0221 3.83594C7.90422 3.83594 6.1888 5.55135 6.1888 7.66927H8.10547C8.10547 6.6151 8.96797 5.7526 10.0221 5.7526C11.0763 5.7526 11.9388 6.6151 11.9388 7.66927C11.9388 9.58594 9.0638 9.34635 9.0638 12.4609H10.9805C10.9805 10.3047 13.8555 10.0651 13.8555 7.66927C13.8555 5.55135 12.1401 3.83594 10.0221 3.83594Z" fill="#2132CD"/>
</svg>
