<svg width="23" height="23" viewBox="0 0 23 23" fill="none" xmlns="http://www.w3.org/2000/svg">
<path d="M14.512 19.5748C14.6113 19.5887 14.7034 19.6344 14.7745 19.7052C14.7991 19.7284 14.8188 19.7563 14.8325 19.7872C14.8461 19.8182 14.8535 19.8515 14.8541 19.8853M14.512 19.5748L12.4813 18.1718L12.2367 18.2236C12.2951 18.4994 12.4602 18.8678 12.8516 19.1892L12.8525 19.1899C13.2314 19.4982 13.7617 19.717 14.4755 19.8222L14.4774 19.8224C14.5231 19.8288 14.5655 19.8498 14.5982 19.8824L14.5981 19.8824L14.6029 19.8869C14.6033 19.8873 14.6036 19.8877 14.6038 19.8882C14.6039 19.8885 14.604 19.8889 14.6041 19.8892M14.512 19.5748C13.8287 19.4742 13.3447 19.2682 13.0103 18.996L14.512 19.5748ZM14.8541 19.8853H14.6103H14.6044H14.6041V19.8856V19.8881V19.8892M14.8541 19.8853L14.6041 19.8897C14.6041 19.8896 14.6041 19.8894 14.6041 19.8892M14.8541 19.8853V20.3541H14.6041V19.8892M4.74107 1.66659H2.63534C1.57151 1.66659 0.708252 2.52985 0.708252 3.59367V4.79159V4.79163C0.708444 5.98952 1.11572 7.1518 1.86329 8.0878C2.57599 8.98017 3.55765 9.61637 4.65995 9.90342C4.88162 11.0866 5.40625 12.1931 6.18387 13.1145C6.95574 14.029 7.94939 14.7284 9.06827 15.1468L8.87008 17.7233C8.78861 17.7705 8.60419 17.8517 8.24041 17.9063C7.34364 18.0392 6.45825 18.7806 6.45825 19.8853V20.3541H4.552C4.29507 20.3541 4.04867 20.4561 3.86699 20.6378C3.68532 20.8195 3.58325 21.0659 3.58325 21.3228C3.58325 21.5798 3.68532 21.8262 3.86699 22.0078C4.04867 22.1895 4.29507 22.2916 4.552 22.2916H18.4478C18.7048 22.2916 18.9512 22.1895 19.1328 22.0078C19.3145 21.8262 19.4166 21.5798 19.4166 21.3228C19.4166 21.0659 19.3145 20.8195 19.1328 20.6378C18.9512 20.4561 18.7048 20.3541 18.4478 20.3541H16.5416V19.8853C16.5416 18.7797 15.6572 18.0392 14.7594 17.9063C14.3958 17.8524 14.2113 17.7709 14.1298 17.7235L13.9316 15.1468C15.046 14.7303 16.0362 14.0349 16.8069 13.1258C17.5829 12.2105 18.1086 11.1112 18.3347 9.93476C19.4644 9.66979 20.4773 9.03966 21.2147 8.13963C21.9884 7.19539 22.4113 6.01235 22.4114 4.79161V3.59367C22.4114 2.52985 21.5481 1.66659 20.4843 1.66659H18.2588C17.9623 1.09766 17.367 0.708252 16.6807 0.708252H6.31917C5.63281 0.708252 5.03749 1.09766 4.74107 1.66659ZM2.64575 4.79159V3.60409H4.54159V7.80685C4.03074 7.56121 3.58876 7.18882 3.25932 6.72272C2.8601 6.15791 2.64574 5.48325 2.64575 4.79159ZM20.4739 4.79159C20.4739 6.16671 19.6442 7.34702 18.4583 7.86091V3.60409H20.4739V4.79159ZM6.47908 2.64575H16.5208V8.62492C16.5208 9.95653 15.9918 11.2336 15.0502 12.1752C14.1086 13.1168 12.8315 13.6458 11.4999 13.6458C10.1683 13.6458 8.89124 13.1168 7.94965 12.1752C7.00806 11.2336 6.47908 9.95653 6.47908 8.62492V2.64575Z" fill="#2132CD" stroke="#2132CD" stroke-width="0.5"/>
</svg>
