<svg width="21" height="15" viewBox="0 0 21 15" fill="none" xmlns="http://www.w3.org/2000/svg">
<path d="M7.62435 7.5013C9.47393 7.5013 10.9785 5.99672 10.9785 4.14714C10.9785 2.29755 9.47393 0.792969 7.62435 0.792969C5.77477 0.792969 4.27018 2.29755 4.27018 4.14714C4.27018 5.99672 5.77477 7.5013 7.62435 7.5013ZM7.62435 2.70964C8.41977 2.70964 9.06185 3.35172 9.06185 4.14714C9.06185 4.94255 8.41977 5.58464 7.62435 5.58464C6.82893 5.58464 6.18685 4.94255 6.18685 4.14714C6.18685 3.35172 6.82893 2.70964 7.62435 2.70964ZM7.62435 9.17839C5.38185 9.17839 0.916016 10.2996 0.916016 12.5326V14.2096H14.3327V12.5326C14.3327 10.2996 9.86685 9.17839 7.62435 9.17839ZM3.15852 12.293C3.96352 11.7371 5.90893 11.0951 7.62435 11.0951C9.33977 11.0951 11.2852 11.7371 12.0902 12.293H3.15852ZM14.371 9.23589C15.4827 10.0409 16.2493 11.1142 16.2493 12.5326V14.2096H20.0827V12.5326C20.0827 10.5967 16.7285 9.49464 14.371 9.23589ZM13.3743 7.5013C15.2239 7.5013 16.7285 5.99672 16.7285 4.14714C16.7285 2.29755 15.2239 0.792969 13.3743 0.792969C12.8568 0.792969 12.3777 0.917552 11.9368 1.12839C12.5406 1.9813 12.8952 3.02589 12.8952 4.14714C12.8952 5.26839 12.5406 6.31297 11.9368 7.16589C12.3777 7.37672 12.8568 7.5013 13.3743 7.5013Z" fill="#2132CD"/>
</svg>
