<svg width="18" height="20" viewBox="0 0 18 20" fill="none" xmlns="http://www.w3.org/2000/svg">
<path d="M15.3333 1.91667H14.375V0H12.4583V1.91667H4.79167V0H2.875V1.91667H1.91667C0.8625 1.91667 0 2.77917 0 3.83333V17.25C0 18.3042 0.8625 19.1667 1.91667 19.1667H15.3333C16.3875 19.1667 17.25 18.3042 17.25 17.25V3.83333C17.25 2.77917 16.3875 1.91667 15.3333 1.91667ZM15.3333 17.25H1.91667V7.66667H15.3333V17.25ZM15.3333 5.75H1.91667V3.83333H15.3333V5.75ZM3.83333 9.58333H13.4167V11.5H3.83333V9.58333ZM3.83333 13.4167H10.5417V15.3333H3.83333V13.4167Z" fill="#2132CD"/>
</svg>
