<svg width="24" height="25" viewBox="0 0 24 25" fill="none" xmlns="http://www.w3.org/2000/svg">
<path d="M9.50897 18.5027V19.0149C9.50897 19.6754 9.77148 20.3088 10.2387 20.7756C10.7059 21.2425 11.3395 21.5045 12 21.5039V21.5039C12.6606 21.5042 13.2942 21.242 13.7614 20.775C14.2286 20.308 14.491 19.6745 14.491 19.0139V18.5027" stroke="#A6AAB4" stroke-width="1.5" stroke-linecap="round" stroke-linejoin="round"/>
<path fill-rule="evenodd" clip-rule="evenodd" d="M17.9495 18.5026C19.0838 18.5026 20.0033 17.583 20.0033 16.4487V16.4487C20.0028 15.8725 19.7741 15.32 19.367 14.9121L18.0025 13.5485V9.49884C18.0025 6.18375 15.3151 3.49634 12 3.49634V3.49634C8.68489 3.49634 5.99748 6.18375 5.99748 9.49884V13.5485L4.63291 14.9121C4.22589 15.32 3.9971 15.8725 3.99664 16.4487V16.4487C3.99664 16.9934 4.21303 17.5159 4.5982 17.901C4.98338 18.2862 5.50578 18.5026 6.0505 18.5026H17.9495Z" stroke="#A6AAB4" stroke-width="1.5" stroke-linecap="round" stroke-linejoin="round"/>
</svg>
