<svg width="21" height="21" viewBox="0 0 21 21" fill="none" xmlns="http://www.w3.org/2000/svg">
<path d="M14.9008 11.4557C15.6195 11.4557 16.252 11.0628 16.5779 10.4686L20.0087 4.24906C20.3633 3.61656 19.9033 2.83073 19.1749 2.83073H4.99161L4.09078 0.914062H0.957031V2.83073H2.8737L6.3237 10.1045L5.02995 12.4428C4.33036 13.727 5.25036 15.2891 6.70703 15.2891H18.207V13.3724H6.70703L7.7612 11.4557H14.9008ZM5.90203 4.7474H17.5458L14.9008 9.53906H8.17328L5.90203 4.7474ZM6.70703 16.2474C5.65286 16.2474 4.79995 17.1099 4.79995 18.1641C4.79995 19.2182 5.65286 20.0807 6.70703 20.0807C7.7612 20.0807 8.6237 19.2182 8.6237 18.1641C8.6237 17.1099 7.7612 16.2474 6.70703 16.2474ZM16.2904 16.2474C15.2362 16.2474 14.3833 17.1099 14.3833 18.1641C14.3833 19.2182 15.2362 20.0807 16.2904 20.0807C17.3445 20.0807 18.207 19.2182 18.207 18.1641C18.207 17.1099 17.3445 16.2474 16.2904 16.2474Z" fill="#2132CD"/>
</svg>
