<svg width="24" height="24" viewBox="0 0 24 24" fill="none" xmlns="http://www.w3.org/2000/svg">
<path fill-rule="evenodd" clip-rule="evenodd" d="M7.5 3H16.504C18.987 3 21 5.013 21 7.496V16.505C21 18.987 18.987 21 16.504 21H7.496C5.013 21 3 18.987 3 16.504V7.5C3 5.015 5.015 3 7.5 3V3Z" stroke="#2132CD" stroke-width="1.5" stroke-linecap="round" stroke-linejoin="round"/>
<path d="M10.6604 8.66602H11.9937V15.3263C10.623 15.3263 9.11523 14.4915 8.04359 12.9588C6.43613 10.7096 6 9.00869 6 8.66602" stroke="#2132CD" stroke-width="1.5" stroke-miterlimit="10" stroke-linecap="round" stroke-linejoin="round"/>
<path d="M17.214 15.3327C17.214 15.3327 16.7281 14.3108 15.7436 13.1893C15.0894 12.4229 14.1673 12.0054 13.3262 12.0054C14.1673 12.0054 15.0894 11.5879 15.7436 10.8215C16.7281 9.69374 17.214 8.67188 17.214 8.67188" stroke="#2132CD" stroke-width="1.5" stroke-miterlimit="10" stroke-linecap="round" stroke-linejoin="round"/>
<path d="M13.3275 11.999H11.9941" stroke="#2132CD" stroke-width="1.5" stroke-miterlimit="10" stroke-linecap="round" stroke-linejoin="round"/>
</svg>
