<svg width="24" height="24" viewBox="0 0 24 24" fill="none" xmlns="http://www.w3.org/2000/svg">
<path d="M18.7497 5.00926C17.1675 3.42469 15.0674 2.56038 12.8331 2.55078C8.22066 2.55078 4.47125 6.30572 4.47125 10.9154C4.47125 12.3847 4.85482 13.8252 5.5836 15.1025L4.39453 19.4336L8.82478 18.2716C10.0522 18.9438 11.4235 19.2895 12.8235 19.2895C17.436 19.2895 21.1854 15.5346 21.1854 10.9154C21.195 8.68737 20.3319 6.58422 18.7497 5.00926Z" stroke="#2132CD" stroke-width="1.5" stroke-miterlimit="10" stroke-linecap="round" stroke-linejoin="round"/>
<path d="M13.8496 12.4909L14.2428 12.1067C14.5976 11.7514 15.1633 11.7034 15.5757 12.0011C15.9784 12.2796 16.3332 12.5293 16.6688 12.7694C17.2058 13.1439 17.2634 13.9026 16.8127 14.3635L16.4675 14.7092" stroke="#2132CD" stroke-width="1.5" stroke-miterlimit="10" stroke-linecap="round" stroke-linejoin="round"/>
<path d="M9.10156 7.32324L9.44678 6.9775C9.90707 6.5165 10.6646 6.58373 11.0386 7.11195C11.2688 7.4481 11.5277 7.81305 11.8058 8.20682C12.0935 8.61979 12.0551 9.18643 11.7003 9.54178L11.3167 9.93555" stroke="#2132CD" stroke-width="1.5" stroke-miterlimit="10" stroke-linecap="round" stroke-linejoin="round"/>
<path d="M16.4656 14.6994C15.0464 16.1111 12.6586 14.9107 10.7695 13.0283" stroke="#2132CD" stroke-width="1.5" stroke-miterlimit="10" stroke-linecap="round" stroke-linejoin="round"/>
<path d="M10.7715 13.0288C8.89196 11.1369 7.69328 8.74556 9.10292 7.32422" stroke="#2132CD" stroke-width="1.5" stroke-miterlimit="10" stroke-linecap="round" stroke-linejoin="round"/>
<path d="M11.3086 9.94531C11.6154 10.4255 12.0086 10.9057 12.4497 11.3474C12.8908 11.7892 13.3702 12.1829 13.8497 12.4902" stroke="#2132CD" stroke-width="1.5" stroke-miterlimit="10" stroke-linecap="round" stroke-linejoin="round"/>
</svg>
