<svg width="20" height="19" viewBox="0 0 20 19" fill="none" xmlns="http://www.w3.org/2000/svg">
<path d="M4.03984 15.125C4.08672 15.125 4.13359 15.1203 4.18047 15.1133L8.12266 14.4219C8.16953 14.4125 8.21406 14.3914 8.24688 14.3563L18.182 4.42109C18.2038 4.39941 18.221 4.37366 18.2328 4.3453C18.2445 4.31695 18.2506 4.28656 18.2506 4.25586C18.2506 4.22516 18.2445 4.19477 18.2328 4.16642C18.221 4.13806 18.2038 4.11231 18.182 4.09063L14.2867 0.192969C14.2422 0.148438 14.1836 0.125 14.1203 0.125C14.057 0.125 13.9984 0.148438 13.9539 0.192969L4.01875 10.1281C3.98359 10.1633 3.9625 10.2055 3.95312 10.2523L3.26172 14.1945C3.23892 14.3201 3.24707 14.4493 3.28545 14.571C3.32384 14.6927 3.39132 14.8032 3.48203 14.893C3.63672 15.043 3.83125 15.125 4.03984 15.125ZM5.61953 11.0375L14.1203 2.53906L15.8383 4.25703L7.3375 12.7555L5.25391 13.1234L5.61953 11.0375ZM18.625 17.0938H1.375C0.960156 17.0938 0.625 17.4289 0.625 17.8438V18.6875C0.625 18.7906 0.709375 18.875 0.8125 18.875H19.1875C19.2906 18.875 19.375 18.7906 19.375 18.6875V17.8438C19.375 17.4289 19.0398 17.0938 18.625 17.0938Z" fill="#A6AAB4"/>
</svg>
