<svg width="14" height="15" viewBox="0 0 14 15" fill="none" xmlns="http://www.w3.org/2000/svg">
<path d="M7.94727 9.19727H0.554688V7.25391H7.89844C8.55599 7.25391 9.08659 7.15299 9.49023 6.95117C9.89388 6.74284 10.1901 6.45312 10.3789 6.08203C10.5677 5.71094 10.6621 5.27799 10.6621 4.7832C10.6621 4.34049 10.5677 3.92708 10.3789 3.54297C10.1901 3.15885 9.89714 2.84635 9.5 2.60547C9.10286 2.35807 8.58529 2.23438 7.94727 2.23438H4.99805V14.5H2.54688V0.28125H7.94727C9.04102 0.28125 9.97201 0.473307 10.7402 0.857422C11.5085 1.24154 12.0977 1.77214 12.5078 2.44922C12.918 3.11979 13.123 3.89128 13.123 4.76367C13.123 5.69466 12.9147 6.49219 12.498 7.15625C12.0879 7.8138 11.4954 8.31836 10.7207 8.66992C9.95247 9.02148 9.02799 9.19727 7.94727 9.19727ZM8.18164 10.2422V12.1855H0.554688V10.2422H8.18164Z" fill="#3B414B"/>
</svg>
